<mxfile host="app.diagrams.net" modified="2024-01-21T04:27:41.680Z" agent="Mozilla/5.0 (Windows NT 10.0; Win64; x64) AppleWebKit/537.36 (KHTML, like Gecko) Chrome/120.0.0.0 Safari/537.36 Edg/120.0.0.0" etag="d93OEQpJ5EP_zVXaubxA" version="22.1.21" type="device">
  <diagram name="Page-1" id="5zLj5Y5tr48tQrBeZHn-">
    <mxGraphModel dx="4731" dy="881" grid="1" gridSize="10" guides="1" tooltips="1" connect="1" arrows="1" fold="1" page="1" pageScale="1" pageWidth="827" pageHeight="1169" math="0" shadow="0">
      <root>
        <mxCell id="0" />
        <mxCell id="1" parent="0" />
        <mxCell id="8-NLuPH6pnUKN8YHv2R4-1" value="" style="edgeStyle=orthogonalEdgeStyle;rounded=0;orthogonalLoop=1;jettySize=auto;html=1;" edge="1" parent="1" source="8-NLuPH6pnUKN8YHv2R4-2" target="8-NLuPH6pnUKN8YHv2R4-5">
          <mxGeometry relative="1" as="geometry" />
        </mxCell>
        <mxCell id="8-NLuPH6pnUKN8YHv2R4-2" value="toupper(c)" style="ellipse;whiteSpace=wrap;html=1;" vertex="1" parent="1">
          <mxGeometry x="-3220" y="311" width="120" height="80" as="geometry" />
        </mxCell>
        <mxCell id="8-NLuPH6pnUKN8YHv2R4-3" value="" style="edgeStyle=orthogonalEdgeStyle;rounded=0;orthogonalLoop=1;jettySize=auto;html=1;" edge="1" parent="1" source="8-NLuPH6pnUKN8YHv2R4-5" target="8-NLuPH6pnUKN8YHv2R4-6">
          <mxGeometry relative="1" as="geometry" />
        </mxCell>
        <mxCell id="8-NLuPH6pnUKN8YHv2R4-4" value="" style="edgeStyle=orthogonalEdgeStyle;rounded=0;orthogonalLoop=1;jettySize=auto;html=1;" edge="1" parent="1" source="8-NLuPH6pnUKN8YHv2R4-5" target="8-NLuPH6pnUKN8YHv2R4-8">
          <mxGeometry relative="1" as="geometry" />
        </mxCell>
        <mxCell id="8-NLuPH6pnUKN8YHv2R4-5" value="c &amp;gt;= &#39;a&#39; &amp;amp;&amp;amp; c &amp;lt;= &#39;z&#39;" style="rhombus;whiteSpace=wrap;html=1;" vertex="1" parent="1">
          <mxGeometry x="-3216.5" y="471" width="113" height="120" as="geometry" />
        </mxCell>
        <mxCell id="8-NLuPH6pnUKN8YHv2R4-6" value="c = c - 32" style="whiteSpace=wrap;html=1;" vertex="1" parent="1">
          <mxGeometry x="-3220" y="661" width="120" height="60" as="geometry" />
        </mxCell>
        <mxCell id="8-NLuPH6pnUKN8YHv2R4-7" value="true" style="text;html=1;align=center;verticalAlign=middle;resizable=0;points=[];autosize=1;strokeColor=none;fillColor=none;" vertex="1" parent="1">
          <mxGeometry x="-3207" y="601" width="40" height="30" as="geometry" />
        </mxCell>
        <mxCell id="8-NLuPH6pnUKN8YHv2R4-8" value="End function" style="ellipse;whiteSpace=wrap;html=1;" vertex="1" parent="1">
          <mxGeometry x="-3067" y="491" width="80" height="80" as="geometry" />
        </mxCell>
        <mxCell id="8-NLuPH6pnUKN8YHv2R4-9" value="false" style="text;html=1;align=center;verticalAlign=middle;resizable=0;points=[];autosize=1;strokeColor=none;fillColor=none;" vertex="1" parent="1">
          <mxGeometry x="-3117" y="501" width="50" height="30" as="geometry" />
        </mxCell>
        <mxCell id="8-NLuPH6pnUKN8YHv2R4-10" value="" style="edgeStyle=orthogonalEdgeStyle;rounded=0;orthogonalLoop=1;jettySize=auto;html=1;" edge="1" parent="1" source="8-NLuPH6pnUKN8YHv2R4-11" target="8-NLuPH6pnUKN8YHv2R4-13">
          <mxGeometry relative="1" as="geometry" />
        </mxCell>
        <mxCell id="8-NLuPH6pnUKN8YHv2R4-11" value="Begin" style="ellipse;whiteSpace=wrap;html=1;" vertex="1" parent="1">
          <mxGeometry x="-2910" y="130" width="120" height="80" as="geometry" />
        </mxCell>
        <mxCell id="8-NLuPH6pnUKN8YHv2R4-12" value="" style="edgeStyle=orthogonalEdgeStyle;rounded=0;orthogonalLoop=1;jettySize=auto;html=1;" edge="1" parent="1" source="8-NLuPH6pnUKN8YHv2R4-13" target="8-NLuPH6pnUKN8YHv2R4-16">
          <mxGeometry relative="1" as="geometry" />
        </mxCell>
        <mxCell id="8-NLuPH6pnUKN8YHv2R4-13" value="s" style="shape=parallelogram;perimeter=parallelogramPerimeter;whiteSpace=wrap;html=1;fixedSize=1;" vertex="1" parent="1">
          <mxGeometry x="-2910" y="300" width="120" height="60" as="geometry" />
        </mxCell>
        <mxCell id="8-NLuPH6pnUKN8YHv2R4-14" value="" style="edgeStyle=orthogonalEdgeStyle;rounded=0;orthogonalLoop=1;jettySize=auto;html=1;" edge="1" parent="1" source="8-NLuPH6pnUKN8YHv2R4-16" target="8-NLuPH6pnUKN8YHv2R4-18">
          <mxGeometry relative="1" as="geometry" />
        </mxCell>
        <mxCell id="8-NLuPH6pnUKN8YHv2R4-16" value="stringstream ss(s)&lt;br&gt;temp = &quot;&quot;&lt;br&gt;vector&amp;lt;string&amp;gt; res" style="whiteSpace=wrap;html=1;" vertex="1" parent="1">
          <mxGeometry x="-2910" y="440" width="120" height="60" as="geometry" />
        </mxCell>
        <mxCell id="8-NLuPH6pnUKN8YHv2R4-17" value="" style="edgeStyle=orthogonalEdgeStyle;rounded=0;orthogonalLoop=1;jettySize=auto;html=1;" edge="1" parent="1" source="8-NLuPH6pnUKN8YHv2R4-18" target="8-NLuPH6pnUKN8YHv2R4-20">
          <mxGeometry relative="1" as="geometry" />
        </mxCell>
        <mxCell id="8-NLuPH6pnUKN8YHv2R4-18" value="ss &amp;gt;&amp;gt; temp" style="rhombus;whiteSpace=wrap;html=1;" vertex="1" parent="1">
          <mxGeometry x="-2890" y="570" width="80" height="80" as="geometry" />
        </mxCell>
        <mxCell id="8-NLuPH6pnUKN8YHv2R4-19" value="" style="edgeStyle=orthogonalEdgeStyle;rounded=0;orthogonalLoop=1;jettySize=auto;html=1;" edge="1" parent="1" source="8-NLuPH6pnUKN8YHv2R4-20" target="8-NLuPH6pnUKN8YHv2R4-22">
          <mxGeometry relative="1" as="geometry" />
        </mxCell>
        <mxCell id="8-NLuPH6pnUKN8YHv2R4-20" value="tolower(temp)" style="whiteSpace=wrap;html=1;" vertex="1" parent="1">
          <mxGeometry x="-2910" y="740" width="120" height="60" as="geometry" />
        </mxCell>
        <mxCell id="8-NLuPH6pnUKN8YHv2R4-22" value="res.push_back(temp)" style="whiteSpace=wrap;html=1;" vertex="1" parent="1">
          <mxGeometry x="-2910" y="880" width="120" height="60" as="geometry" />
        </mxCell>
        <mxCell id="8-NLuPH6pnUKN8YHv2R4-25" value="false" style="text;html=1;align=center;verticalAlign=middle;resizable=0;points=[];autosize=1;strokeColor=none;fillColor=none;" vertex="1" parent="1">
          <mxGeometry x="-2750" y="581" width="50" height="30" as="geometry" />
        </mxCell>
        <mxCell id="8-NLuPH6pnUKN8YHv2R4-26" value="" style="endArrow=classic;html=1;rounded=0;entryX=0;entryY=0.5;entryDx=0;entryDy=0;exitX=0;exitY=0.5;exitDx=0;exitDy=0;" edge="1" parent="1" source="8-NLuPH6pnUKN8YHv2R4-22" target="8-NLuPH6pnUKN8YHv2R4-18">
          <mxGeometry width="50" height="50" relative="1" as="geometry">
            <mxPoint x="-2800" y="750" as="sourcePoint" />
            <mxPoint x="-2750" y="700" as="targetPoint" />
            <Array as="points">
              <mxPoint x="-2950" y="910" />
              <mxPoint x="-2950" y="610" />
            </Array>
          </mxGeometry>
        </mxCell>
        <mxCell id="8-NLuPH6pnUKN8YHv2R4-59" value="" style="edgeStyle=orthogonalEdgeStyle;rounded=0;orthogonalLoop=1;jettySize=auto;html=1;" edge="1" parent="1" source="8-NLuPH6pnUKN8YHv2R4-27" target="8-NLuPH6pnUKN8YHv2R4-58">
          <mxGeometry relative="1" as="geometry" />
        </mxCell>
        <mxCell id="8-NLuPH6pnUKN8YHv2R4-27" value="i = 1&lt;br&gt;n&amp;nbsp; = res.size" style="whiteSpace=wrap;html=1;" vertex="1" parent="1">
          <mxGeometry x="-2910" y="1020" width="120" height="60" as="geometry" />
        </mxCell>
        <mxCell id="8-NLuPH6pnUKN8YHv2R4-32" value="" style="edgeStyle=orthogonalEdgeStyle;rounded=0;orthogonalLoop=1;jettySize=auto;html=1;" edge="1" parent="1" source="8-NLuPH6pnUKN8YHv2R4-33" target="8-NLuPH6pnUKN8YHv2R4-35">
          <mxGeometry relative="1" as="geometry" />
        </mxCell>
        <mxCell id="8-NLuPH6pnUKN8YHv2R4-33" value="tolower(s)" style="ellipse;whiteSpace=wrap;html=1;" vertex="1" parent="1">
          <mxGeometry x="-2366" y="280" width="120" height="80" as="geometry" />
        </mxCell>
        <mxCell id="8-NLuPH6pnUKN8YHv2R4-34" value="" style="edgeStyle=orthogonalEdgeStyle;rounded=0;orthogonalLoop=1;jettySize=auto;html=1;" edge="1" parent="1" source="8-NLuPH6pnUKN8YHv2R4-35" target="8-NLuPH6pnUKN8YHv2R4-38">
          <mxGeometry relative="1" as="geometry" />
        </mxCell>
        <mxCell id="8-NLuPH6pnUKN8YHv2R4-35" value="i = 0&lt;br&gt;n = s.size" style="whiteSpace=wrap;html=1;" vertex="1" parent="1">
          <mxGeometry x="-2366" y="420.75" width="120" height="60" as="geometry" />
        </mxCell>
        <mxCell id="8-NLuPH6pnUKN8YHv2R4-36" value="" style="edgeStyle=orthogonalEdgeStyle;rounded=0;orthogonalLoop=1;jettySize=auto;html=1;" edge="1" parent="1" source="8-NLuPH6pnUKN8YHv2R4-38" target="8-NLuPH6pnUKN8YHv2R4-41">
          <mxGeometry relative="1" as="geometry" />
        </mxCell>
        <mxCell id="8-NLuPH6pnUKN8YHv2R4-37" value="" style="edgeStyle=orthogonalEdgeStyle;rounded=0;orthogonalLoop=1;jettySize=auto;html=1;entryX=1;entryY=0.5;entryDx=0;entryDy=0;" edge="1" parent="1" source="8-NLuPH6pnUKN8YHv2R4-38" target="8-NLuPH6pnUKN8YHv2R4-49">
          <mxGeometry relative="1" as="geometry">
            <mxPoint x="-2373.5" y="591.75" as="targetPoint" />
          </mxGeometry>
        </mxCell>
        <mxCell id="8-NLuPH6pnUKN8YHv2R4-38" value="i &amp;lt; n" style="rhombus;whiteSpace=wrap;html=1;" vertex="1" parent="1">
          <mxGeometry x="-2346" y="550.75" width="80" height="80" as="geometry" />
        </mxCell>
        <mxCell id="8-NLuPH6pnUKN8YHv2R4-39" value="" style="edgeStyle=orthogonalEdgeStyle;rounded=0;orthogonalLoop=1;jettySize=auto;html=1;" edge="1" parent="1" source="8-NLuPH6pnUKN8YHv2R4-41" target="8-NLuPH6pnUKN8YHv2R4-42">
          <mxGeometry relative="1" as="geometry" />
        </mxCell>
        <mxCell id="8-NLuPH6pnUKN8YHv2R4-40" value="" style="edgeStyle=orthogonalEdgeStyle;rounded=0;orthogonalLoop=1;jettySize=auto;html=1;" edge="1" parent="1" source="8-NLuPH6pnUKN8YHv2R4-41" target="8-NLuPH6pnUKN8YHv2R4-44">
          <mxGeometry relative="1" as="geometry" />
        </mxCell>
        <mxCell id="8-NLuPH6pnUKN8YHv2R4-41" value="s[i] &amp;gt;= &#39;A&#39; &amp;amp;&amp;amp; s[i] &amp;lt;= &#39;Z&#39;" style="rhombus;whiteSpace=wrap;html=1;" vertex="1" parent="1">
          <mxGeometry x="-2373.5" y="699.75" width="135" height="121" as="geometry" />
        </mxCell>
        <mxCell id="8-NLuPH6pnUKN8YHv2R4-42" value="s[i] = s[i] + 32" style="whiteSpace=wrap;html=1;" vertex="1" parent="1">
          <mxGeometry x="-2366" y="931.25" width="120" height="60" as="geometry" />
        </mxCell>
        <mxCell id="8-NLuPH6pnUKN8YHv2R4-43" value="true" style="text;html=1;align=center;verticalAlign=middle;resizable=0;points=[];autosize=1;strokeColor=none;fillColor=none;" vertex="1" parent="1">
          <mxGeometry x="-2306" y="861.75" width="40" height="30" as="geometry" />
        </mxCell>
        <mxCell id="8-NLuPH6pnUKN8YHv2R4-44" value="i = i + 1" style="whiteSpace=wrap;html=1;" vertex="1" parent="1">
          <mxGeometry x="-2151" y="730.25" width="120" height="60" as="geometry" />
        </mxCell>
        <mxCell id="8-NLuPH6pnUKN8YHv2R4-45" value="false" style="text;html=1;align=center;verticalAlign=middle;resizable=0;points=[];autosize=1;strokeColor=none;fillColor=none;" vertex="1" parent="1">
          <mxGeometry x="-2226" y="730.75" width="50" height="30" as="geometry" />
        </mxCell>
        <mxCell id="8-NLuPH6pnUKN8YHv2R4-46" value="" style="endArrow=classic;html=1;rounded=0;entryX=1;entryY=0.5;entryDx=0;entryDy=0;exitX=0.5;exitY=0;exitDx=0;exitDy=0;" edge="1" parent="1" source="8-NLuPH6pnUKN8YHv2R4-44" target="8-NLuPH6pnUKN8YHv2R4-38">
          <mxGeometry width="50" height="50" relative="1" as="geometry">
            <mxPoint x="-2246" y="780.75" as="sourcePoint" />
            <mxPoint x="-2196" y="730.75" as="targetPoint" />
            <Array as="points">
              <mxPoint x="-2091" y="590.75" />
            </Array>
          </mxGeometry>
        </mxCell>
        <mxCell id="8-NLuPH6pnUKN8YHv2R4-47" value="" style="endArrow=classic;html=1;rounded=0;entryX=0.5;entryY=1;entryDx=0;entryDy=0;exitX=1;exitY=0.5;exitDx=0;exitDy=0;" edge="1" parent="1" source="8-NLuPH6pnUKN8YHv2R4-42" target="8-NLuPH6pnUKN8YHv2R4-44">
          <mxGeometry width="50" height="50" relative="1" as="geometry">
            <mxPoint x="-2246" y="780.75" as="sourcePoint" />
            <mxPoint x="-2196" y="730.75" as="targetPoint" />
            <Array as="points">
              <mxPoint x="-2091" y="960.75" />
            </Array>
          </mxGeometry>
        </mxCell>
        <mxCell id="8-NLuPH6pnUKN8YHv2R4-48" value="true" style="text;html=1;align=center;verticalAlign=middle;resizable=0;points=[];autosize=1;strokeColor=none;fillColor=none;" vertex="1" parent="1">
          <mxGeometry x="-2306" y="638.75" width="40" height="30" as="geometry" />
        </mxCell>
        <mxCell id="8-NLuPH6pnUKN8YHv2R4-49" value="End fuction" style="ellipse;whiteSpace=wrap;html=1;" vertex="1" parent="1">
          <mxGeometry x="-2490" y="550.75" width="80" height="80" as="geometry" />
        </mxCell>
        <mxCell id="8-NLuPH6pnUKN8YHv2R4-50" value="false" style="text;html=1;align=center;verticalAlign=middle;resizable=0;points=[];autosize=1;strokeColor=none;fillColor=none;" vertex="1" parent="1">
          <mxGeometry x="-2396" y="551" width="50" height="30" as="geometry" />
        </mxCell>
        <mxCell id="8-NLuPH6pnUKN8YHv2R4-52" value="true" style="text;html=1;align=center;verticalAlign=middle;resizable=0;points=[];autosize=1;strokeColor=none;fillColor=none;" vertex="1" parent="1">
          <mxGeometry x="-2850" y="668" width="40" height="30" as="geometry" />
        </mxCell>
        <mxCell id="8-NLuPH6pnUKN8YHv2R4-55" value="" style="endArrow=classic;html=1;rounded=0;entryX=0;entryY=0.5;entryDx=0;entryDy=0;exitX=1;exitY=0.5;exitDx=0;exitDy=0;exitPerimeter=0;" edge="1" parent="1" target="8-NLuPH6pnUKN8YHv2R4-33">
          <mxGeometry width="50" height="50" relative="1" as="geometry">
            <mxPoint x="-2790" y="770" as="sourcePoint" />
            <mxPoint x="-2473" y="230" as="targetPoint" />
            <Array as="points">
              <mxPoint x="-2760" y="770" />
              <mxPoint x="-2760" y="320" />
            </Array>
          </mxGeometry>
        </mxCell>
        <mxCell id="8-NLuPH6pnUKN8YHv2R4-61" value="" style="edgeStyle=orthogonalEdgeStyle;rounded=0;orthogonalLoop=1;jettySize=auto;html=1;" edge="1" parent="1" source="8-NLuPH6pnUKN8YHv2R4-58">
          <mxGeometry relative="1" as="geometry">
            <mxPoint x="-2850" y="1310" as="targetPoint" />
          </mxGeometry>
        </mxCell>
        <mxCell id="8-NLuPH6pnUKN8YHv2R4-78" value="" style="edgeStyle=orthogonalEdgeStyle;rounded=0;orthogonalLoop=1;jettySize=auto;html=1;" edge="1" parent="1" source="8-NLuPH6pnUKN8YHv2R4-58" target="8-NLuPH6pnUKN8YHv2R4-77">
          <mxGeometry relative="1" as="geometry" />
        </mxCell>
        <mxCell id="8-NLuPH6pnUKN8YHv2R4-58" value="i &amp;lt; n" style="rhombus;whiteSpace=wrap;html=1;" vertex="1" parent="1">
          <mxGeometry x="-2890" y="1150" width="80" height="80" as="geometry" />
        </mxCell>
        <mxCell id="8-NLuPH6pnUKN8YHv2R4-63" value="" style="edgeStyle=orthogonalEdgeStyle;rounded=0;orthogonalLoop=1;jettySize=auto;html=1;" edge="1" parent="1" target="8-NLuPH6pnUKN8YHv2R4-62">
          <mxGeometry relative="1" as="geometry">
            <mxPoint x="-2850" y="1370" as="sourcePoint" />
          </mxGeometry>
        </mxCell>
        <mxCell id="8-NLuPH6pnUKN8YHv2R4-66" value="" style="edgeStyle=orthogonalEdgeStyle;rounded=0;orthogonalLoop=1;jettySize=auto;html=1;" edge="1" parent="1" source="8-NLuPH6pnUKN8YHv2R4-62" target="8-NLuPH6pnUKN8YHv2R4-65">
          <mxGeometry relative="1" as="geometry" />
        </mxCell>
        <mxCell id="8-NLuPH6pnUKN8YHv2R4-72" value="" style="edgeStyle=orthogonalEdgeStyle;rounded=0;orthogonalLoop=1;jettySize=auto;html=1;" edge="1" parent="1" source="8-NLuPH6pnUKN8YHv2R4-62" target="8-NLuPH6pnUKN8YHv2R4-71">
          <mxGeometry relative="1" as="geometry" />
        </mxCell>
        <mxCell id="8-NLuPH6pnUKN8YHv2R4-62" value="i &amp;lt; x" style="rhombus;whiteSpace=wrap;html=1;" vertex="1" parent="1">
          <mxGeometry x="-2890" y="1455" width="80" height="80" as="geometry" />
        </mxCell>
        <mxCell id="8-NLuPH6pnUKN8YHv2R4-64" value="i = 0&lt;br&gt;x = res[0].size" style="rounded=1;whiteSpace=wrap;html=1;" vertex="1" parent="1">
          <mxGeometry x="-2910" y="1310" width="120" height="60" as="geometry" />
        </mxCell>
        <mxCell id="8-NLuPH6pnUKN8YHv2R4-65" value="toupper(res[0][i])" style="whiteSpace=wrap;html=1;" vertex="1" parent="1">
          <mxGeometry x="-2910" y="1600" width="120" height="60" as="geometry" />
        </mxCell>
        <mxCell id="8-NLuPH6pnUKN8YHv2R4-67" value="" style="endArrow=classic;html=1;rounded=0;entryX=0;entryY=0.5;entryDx=0;entryDy=0;" edge="1" parent="1" target="8-NLuPH6pnUKN8YHv2R4-62">
          <mxGeometry width="50" height="50" relative="1" as="geometry">
            <mxPoint x="-2910" y="1630" as="sourcePoint" />
            <mxPoint x="-2790" y="1340" as="targetPoint" />
            <Array as="points">
              <mxPoint x="-2940" y="1630" />
              <mxPoint x="-2940" y="1495" />
            </Array>
          </mxGeometry>
        </mxCell>
        <mxCell id="8-NLuPH6pnUKN8YHv2R4-68" value="" style="endArrow=classic;html=1;rounded=0;entryX=0;entryY=0.5;entryDx=0;entryDy=0;exitX=0;exitY=0.5;exitDx=0;exitDy=0;" edge="1" parent="1" source="8-NLuPH6pnUKN8YHv2R4-65" target="8-NLuPH6pnUKN8YHv2R4-2">
          <mxGeometry width="50" height="50" relative="1" as="geometry">
            <mxPoint x="-2990" y="620" as="sourcePoint" />
            <mxPoint x="-2940" y="570" as="targetPoint" />
            <Array as="points">
              <mxPoint x="-3250" y="1630" />
              <mxPoint x="-3250" y="351" />
            </Array>
          </mxGeometry>
        </mxCell>
        <mxCell id="8-NLuPH6pnUKN8YHv2R4-69" value="i = i + 1" style="rounded=0;whiteSpace=wrap;html=1;" vertex="1" parent="1">
          <mxGeometry x="-2984" y="1530" width="90" height="50" as="geometry" />
        </mxCell>
        <mxCell id="8-NLuPH6pnUKN8YHv2R4-70" value="true" style="text;html=1;align=center;verticalAlign=middle;resizable=0;points=[];autosize=1;strokeColor=none;fillColor=none;" vertex="1" parent="1">
          <mxGeometry x="-2850" y="1550" width="40" height="30" as="geometry" />
        </mxCell>
        <mxCell id="8-NLuPH6pnUKN8YHv2R4-75" value="" style="edgeStyle=orthogonalEdgeStyle;rounded=0;orthogonalLoop=1;jettySize=auto;html=1;" edge="1" parent="1" source="8-NLuPH6pnUKN8YHv2R4-71" target="8-NLuPH6pnUKN8YHv2R4-74">
          <mxGeometry relative="1" as="geometry" />
        </mxCell>
        <mxCell id="8-NLuPH6pnUKN8YHv2R4-71" value="print res[0]" style="whiteSpace=wrap;html=1;" vertex="1" parent="1">
          <mxGeometry x="-2750" y="1465" width="120" height="60" as="geometry" />
        </mxCell>
        <mxCell id="8-NLuPH6pnUKN8YHv2R4-73" value="false" style="text;html=1;align=center;verticalAlign=middle;resizable=0;points=[];autosize=1;strokeColor=none;fillColor=none;" vertex="1" parent="1">
          <mxGeometry x="-2810" y="1470" width="50" height="30" as="geometry" />
        </mxCell>
        <mxCell id="8-NLuPH6pnUKN8YHv2R4-74" value="End" style="ellipse;whiteSpace=wrap;html=1;" vertex="1" parent="1">
          <mxGeometry x="-2730" y="1595" width="80" height="80" as="geometry" />
        </mxCell>
        <mxCell id="8-NLuPH6pnUKN8YHv2R4-76" value="false" style="text;html=1;align=center;verticalAlign=middle;resizable=0;points=[];autosize=1;strokeColor=none;fillColor=none;" vertex="1" parent="1">
          <mxGeometry x="-2855" y="1258" width="50" height="30" as="geometry" />
        </mxCell>
        <mxCell id="8-NLuPH6pnUKN8YHv2R4-85" value="" style="edgeStyle=orthogonalEdgeStyle;rounded=0;orthogonalLoop=1;jettySize=auto;html=1;" edge="1" parent="1" source="8-NLuPH6pnUKN8YHv2R4-77" target="8-NLuPH6pnUKN8YHv2R4-84">
          <mxGeometry relative="1" as="geometry" />
        </mxCell>
        <mxCell id="8-NLuPH6pnUKN8YHv2R4-77" value="toupper(res[i][0])" style="whiteSpace=wrap;html=1;" vertex="1" parent="1">
          <mxGeometry x="-2750" y="1160" width="120" height="60" as="geometry" />
        </mxCell>
        <mxCell id="8-NLuPH6pnUKN8YHv2R4-80" value="true" style="text;html=1;align=center;verticalAlign=middle;resizable=0;points=[];autosize=1;strokeColor=none;fillColor=none;" vertex="1" parent="1">
          <mxGeometry x="-2810" y="1158" width="40" height="30" as="geometry" />
        </mxCell>
        <mxCell id="8-NLuPH6pnUKN8YHv2R4-83" value="" style="endArrow=classic;html=1;rounded=0;exitX=0.38;exitY=0.04;exitDx=0;exitDy=0;exitPerimeter=0;" edge="1" parent="1" source="8-NLuPH6pnUKN8YHv2R4-77">
          <mxGeometry width="50" height="50" relative="1" as="geometry">
            <mxPoint x="-2900" y="910" as="sourcePoint" />
            <mxPoint x="-3250" y="1110" as="targetPoint" />
            <Array as="points">
              <mxPoint x="-2704" y="1110" />
            </Array>
          </mxGeometry>
        </mxCell>
        <mxCell id="8-NLuPH6pnUKN8YHv2R4-87" value="" style="edgeStyle=orthogonalEdgeStyle;rounded=0;orthogonalLoop=1;jettySize=auto;html=1;" edge="1" parent="1" source="8-NLuPH6pnUKN8YHv2R4-84" target="8-NLuPH6pnUKN8YHv2R4-86">
          <mxGeometry relative="1" as="geometry" />
        </mxCell>
        <mxCell id="8-NLuPH6pnUKN8YHv2R4-84" value="print res[i]" style="whiteSpace=wrap;html=1;" vertex="1" parent="1">
          <mxGeometry x="-2750" y="1300" width="120" height="60" as="geometry" />
        </mxCell>
        <mxCell id="8-NLuPH6pnUKN8YHv2R4-89" value="" style="edgeStyle=orthogonalEdgeStyle;rounded=0;orthogonalLoop=1;jettySize=auto;html=1;" edge="1" parent="1" source="8-NLuPH6pnUKN8YHv2R4-86" target="8-NLuPH6pnUKN8YHv2R4-88">
          <mxGeometry relative="1" as="geometry" />
        </mxCell>
        <mxCell id="8-NLuPH6pnUKN8YHv2R4-92" value="" style="edgeStyle=orthogonalEdgeStyle;rounded=0;orthogonalLoop=1;jettySize=auto;html=1;" edge="1" parent="1" source="8-NLuPH6pnUKN8YHv2R4-86" target="8-NLuPH6pnUKN8YHv2R4-91">
          <mxGeometry relative="1" as="geometry" />
        </mxCell>
        <mxCell id="8-NLuPH6pnUKN8YHv2R4-86" value="i != n - 1" style="rhombus;whiteSpace=wrap;html=1;" vertex="1" parent="1">
          <mxGeometry x="-2550" y="1290" width="80" height="80" as="geometry" />
        </mxCell>
        <mxCell id="8-NLuPH6pnUKN8YHv2R4-88" value="print(&quot; &quot;)" style="whiteSpace=wrap;html=1;" vertex="1" parent="1">
          <mxGeometry x="-2570" y="1420" width="120" height="60" as="geometry" />
        </mxCell>
        <mxCell id="8-NLuPH6pnUKN8YHv2R4-90" value="true" style="text;html=1;align=center;verticalAlign=middle;resizable=0;points=[];autosize=1;strokeColor=none;fillColor=none;" vertex="1" parent="1">
          <mxGeometry x="-2550" y="1370" width="40" height="30" as="geometry" />
        </mxCell>
        <mxCell id="8-NLuPH6pnUKN8YHv2R4-91" value="print(&quot;, &quot;)" style="whiteSpace=wrap;html=1;" vertex="1" parent="1">
          <mxGeometry x="-2410" y="1300" width="120" height="60" as="geometry" />
        </mxCell>
        <mxCell id="8-NLuPH6pnUKN8YHv2R4-93" value="false" style="text;html=1;align=center;verticalAlign=middle;resizable=0;points=[];autosize=1;strokeColor=none;fillColor=none;" vertex="1" parent="1">
          <mxGeometry x="-2465" y="1298" width="50" height="30" as="geometry" />
        </mxCell>
        <mxCell id="8-NLuPH6pnUKN8YHv2R4-94" value="i = i + 1" style="rounded=0;whiteSpace=wrap;html=1;" vertex="1" parent="1">
          <mxGeometry x="-2470" y="1570" width="120" height="60" as="geometry" />
        </mxCell>
        <mxCell id="8-NLuPH6pnUKN8YHv2R4-95" value="" style="endArrow=classic;html=1;rounded=0;entryX=0.25;entryY=0;entryDx=0;entryDy=0;exitX=0.5;exitY=1;exitDx=0;exitDy=0;" edge="1" parent="1" source="8-NLuPH6pnUKN8YHv2R4-88" target="8-NLuPH6pnUKN8YHv2R4-94">
          <mxGeometry width="50" height="50" relative="1" as="geometry">
            <mxPoint x="-2420" y="1310" as="sourcePoint" />
            <mxPoint x="-2370" y="1260" as="targetPoint" />
            <Array as="points">
              <mxPoint x="-2510" y="1540" />
              <mxPoint x="-2440" y="1540" />
            </Array>
          </mxGeometry>
        </mxCell>
        <mxCell id="8-NLuPH6pnUKN8YHv2R4-96" value="" style="endArrow=classic;html=1;rounded=0;entryX=0.5;entryY=0;entryDx=0;entryDy=0;exitX=0.5;exitY=1;exitDx=0;exitDy=0;" edge="1" parent="1" source="8-NLuPH6pnUKN8YHv2R4-91" target="8-NLuPH6pnUKN8YHv2R4-94">
          <mxGeometry width="50" height="50" relative="1" as="geometry">
            <mxPoint x="-2420" y="1310" as="sourcePoint" />
            <mxPoint x="-2370" y="1260" as="targetPoint" />
            <Array as="points">
              <mxPoint x="-2350" y="1440" />
              <mxPoint x="-2410" y="1440" />
            </Array>
          </mxGeometry>
        </mxCell>
        <mxCell id="8-NLuPH6pnUKN8YHv2R4-97" value="" style="endArrow=classic;html=1;rounded=0;exitX=1;exitY=0.5;exitDx=0;exitDy=0;" edge="1" parent="1" source="8-NLuPH6pnUKN8YHv2R4-94">
          <mxGeometry width="50" height="50" relative="1" as="geometry">
            <mxPoint x="-2680" y="1520" as="sourcePoint" />
            <mxPoint x="-2850" y="1130" as="targetPoint" />
            <Array as="points">
              <mxPoint x="-2260" y="1600" />
              <mxPoint x="-2260" y="1130" />
            </Array>
          </mxGeometry>
        </mxCell>
        <mxCell id="8-NLuPH6pnUKN8YHv2R4-98" value="" style="endArrow=classic;html=1;rounded=0;entryX=1;entryY=0.5;entryDx=0;entryDy=0;exitX=1;exitY=0.5;exitDx=0;exitDy=0;" edge="1" parent="1" source="8-NLuPH6pnUKN8YHv2R4-18" target="8-NLuPH6pnUKN8YHv2R4-27">
          <mxGeometry width="50" height="50" relative="1" as="geometry">
            <mxPoint x="-2810" y="770" as="sourcePoint" />
            <mxPoint x="-2760" y="720" as="targetPoint" />
            <Array as="points">
              <mxPoint x="-2700" y="610" />
              <mxPoint x="-2700" y="1050" />
            </Array>
          </mxGeometry>
        </mxCell>
      </root>
    </mxGraphModel>
  </diagram>
</mxfile>
